# xmcd
#
# Track frame offsets: 
#        150
#        13160
#        27860
#        43760
#        57260
#        70760
#        82610
#        95735
#        120635
#        134285
#
# Disc length: 2112 seconds
#
# Revision: 3
# Processed by: cddbd v1.5.2PL0 Copyright (c) Steve Scherf et al.
# Submitted via: ExactAudioCopy v1.3
#
DISCID=7d083e0a
DTITLE=Erroll Garner - Erroll Garner Plays Misty
DYEAR=1954
DGENRE=Jazz
TTITLE0=Misty
TTITLE1=Exactly Like You
TTITLE2=You Are My Sunshine
TTITLE3=What Is This Thing Called Love
TTITLE4=Frantenality
TTITLE5=Again
TTITLE6=Where Or When
TTITLE7=Love In Bloom
TTITLE8=Through A Long And Sleepless Night
TTITLE9=That Old Feeling
EXTD=YEAR: 1954
EXTT0=
EXTT1=
EXTT2=
EXTT3=
EXTT4=
EXTT5=
EXTT6=
EXTT7=
EXTT8=
EXTT9=
PLAYORDER=
